<svg xmlns="http://www.w3.org/2000/svg" xmlns:xlink="http://www.w3.org/1999/xlink" id="Layer_1" x="0px" y="0px" viewBox="0 0 723.5 362" style="enable-background:new 0 0 723.5 362;" xml:space="preserve"><style type="text/css">	.st0{fill:#FFFFFF;}</style><g id="XMLID_00000125570072335212551790000016203643574215517608_">	<g id="XMLID_00000029724540722120351890000009568471734918780841_">		<g id="XMLID_00000141453117668274156880000002607797230346289597_">			<path id="XMLID_00000120533029235647347570000015325561168739643068_" class="st0" d="M192.4,173.2l23.1,75.6h-31.5l-11.4-11.4    l-19.3-63.9h-12.5v75.3h-31.2l-11.1-11.4V34.9h82.3l22.5,19.8l11.4,11.4v89L192.4,173.2z M174.5,234.8h26l-22.8-75.3h2.4    l20.7-17.2V55.9l-21.1-18.7h-79v197.6H127v-75.3h24.8L174.5,234.8z M127,135.9V60.6h48.4l-0.3,75.3H127z M140.7,74.6v58.9h31.5    l0.3-58.9H140.7z"></path>		</g>		<g id="XMLID_00000124162520257124758280000016026753204605747636_">			<path id="XMLID_00000042714455420841394130000001318871139827079596_" class="st0" d="M338.3,54.7l11.1,11.4v163.7l-22.2,18.4    h-60.4l-33.3-30.1V53.3l22.8-18.4h59.5L338.3,54.7z M335.6,217.3V55.9l-21-18.7h-57.5l-21,17.2V217l20.4,17.2h58.7L335.6,217.3z     M262.1,210.9V60.6h48.2v150.3H262.1z M275.8,74.6v133.9h31.8V74.6H275.8z"></path>		</g>		<g id="XMLID_00000071526986882429752480000012975855637194527668_">			<path id="XMLID_00000041287859659366405050000006014763831193046940_" class="st0" d="M485.3,46L448,147.5l37.4,101.3H453    l-11.4-11.4l-13.4-36.5l-17.8,47.9H378l-11.4-11.4l37.6-101.3L366.6,34.9h32.7L410.3,46l13.7,36.5l17.5-47.6h32.7L485.3,46z     M470.5,234.8L434,135.9l36.5-98.6h-27.1l-23.1,62.2l-22.8-62.2h-27.1l36.5,98.6l-36.5,98.9h27.1l22.8-62.2l23.1,62.2H470.5z"></path>		</g>		<g id="XMLID_00000070800630547912084610000011278880297170908076_">			<path id="XMLID_00000033328726870861413210000008027873161797147015_" class="st0" d="M613.7,34.6L625.1,46l-40.3,132.5v69.7    h-32.4l-11.1-11.4v-70.3L503.1,34.6h33.6L547.8,46l14.6,52.5l17.5-63.9H613.7z M571.1,166.8l39.4-129.9h-28.3L558.3,123    l-23.6-86.1h-28L544,166.2v68h27.1V166.8z"></path>		</g>	</g></g><g>	<path class="st0" d="M81.9,291.5c4.2-3.4,7.1-8.4,7.4-14.3c0.5-10.6-10.6-17.1-25.7-16.7c-16.3,0.5-32.5,7-39.1,20.2  c-5.9,11.7-0.2,21,10.2,20.7c12.4-0.2,8.4-13.2,8.4-13.2c-5.2,2.1-11.2,0.3-8.3-7.9c2-7.5,11.5-14,25.3-14c11,0,16.4,5.3,15.5,12.9  c-0.5,4-1.7,7.2-3.9,9.5c-1.6-0.1-3.2-0.2-4.6-0.2c-6.9,0.2-8.6,5.1-3.9,7c3.1,1.1,6.6,1.3,9.9,0.4c2.7,2.8,3.9,7.2,2.6,14  c-2.6,12.6-16.2,16.3-24.8,15.6c-7.1-0.6-16-4.4-14.9-11.5c0.7-4.7,4.4-5.5,8.3-3.5l-0.6,5.8c-0.2,2.8-0.9,4-0.9,4  c9.2,5.6,15.7,0.2,15.8-12.4c-0.3-29.3,5.6-33.5,5.6-33.5c0-3.2-9.2-7.8-14.4-1.3c-3.9,5.1-3.4,10.9-4.8,29.7  c-8.7-1.5-17.7,1.9-18.6,10.4c-0.9,8.8,10.4,14.7,22.8,15.9c15.4,1.5,40.2-3.7,42-21.1C92.2,299.4,87.7,294.3,81.9,291.5z"></path>	<path class="st0" d="M241.2,311.5H241c-2.1,6.2-9.5,12.5-17.2,10.9c-2.8-0.5-4.6-3.6-5.5-7.2c0.2-0.1,0.4-0.1,0.7-0.2  c21.8-10.5,25-23,9.3-25.9c-10.5-1.9-21.2,5.9-23.5,17.4c-0.5,2.8-0.3,5.4,0.3,7.7c-1.9,3.6-4.3,5.6-6.7,5.5  c-2.5-0.1-6.4-2.6-10.4-4.5c3.1-5.4,6.3-11.7,8.6-16.5c5.3-3.2,9.4-7.5,10.2-10.5c1.5-5.6-6.1-4.9-10.7,1.4  c-2.6,0.2-5.7,0.2-8.6,0.2c-10.4,0.2-15.5-2.9-15.5-2.9s-0.4,0-0.6,0.3c-1.6,2-1.8,7.9,1.5,11.9c-0.2,1.3-0.5,2.7-0.8,4  c-2.1,3.5-4.9,6.5-8,7.1c0.4-1.4,0.7-2.8,0.9-4.1c2.3-15.5-6.2-21.8-11.6-18.8c-0.9,0.4-1.6,1.1-2.3,1.9  c-10.5,0.4-19.8,8.1-21.2,18.5c-0.1,0.4-0.1,0.8-0.1,1.2c-0.9,0.6-1.8,1-2.8,1.2c0.4-1.4,0.7-2.8,0.9-4.1  c2.3-15.5-6.2-21.8-11.6-18.8c-0.9,0.4-1.6,1.1-2.3,1.9c-10.5,0.4-19.8,8.1-21.2,18.5c-1.6,11.6,5.4,19.3,14.4,19.8  c8.7,0.4,15-6.1,18.3-13.4c1.5-0.1,3-0.4,4.3-1c0.9,8.6,7,14.1,14.5,14.5c8.7,0.4,15-6.1,18.3-13.4c2.6-0.1,4.8-1.1,6.8-2.6  c-0.7,1.7-1.5,3.3-2.3,4.7v0.1c0.5,1.5,2.5,1.9,3.7-0.6c2.5-4.5,4.5-9.4,5.8-13.9c2.1,1.1,4.8,1.5,8.5,1.2h0.7  c1.4-0.2,2.9-0.6,4.4-1.1c-1.8,4-3.8,8-5.8,11.7c-2.7-1-5.3-1.3-7.6-0.3c-5.3,2.3-6.6,11-2.7,14.1c1.1,0.8,4.6,0.9,8.8-4.2  c2.6,2.5,5.9,5.3,9.3,6.2c5.7,1.4,11.1-4.5,14.7-11.5c2.9,5.2,8.2,8.6,12.1,9.3c11.8,2,21.6-5.9,24.2-12.5  C244,312.1,242.7,311,241.2,311.5z M112,320.2c-5.1-0.2-6.7-5.8-5.7-14.4c0.6-5.9,2.8-10.8,5.8-12.9c-2.1,7.3,0.8,18.2,8.9,20.5  C118.8,317.9,115.6,320.6,112,320.2z M123.4,306c-0.2,1.4-0.6,2.5-0.9,3.6c-6.2-2-5.8-8.7-3.4-10.6  C121.2,297.4,124.6,299.1,123.4,306z M149.1,320.2c-5.1-0.2-6.7-5.8-5.7-14.4c0.6-5.9,2.8-10.8,5.8-12.9  c-2.1,7.3,0.8,18.2,8.9,20.5C155.9,317.9,152.6,320.6,149.1,320.2z M160.5,306c-0.2,1.4-0.6,2.5-0.9,3.6c-6.2-2-5.8-8.7-3.4-10.6  C158.3,297.4,161.6,299.1,160.5,306z M218.3,305.3c1.5-5.6,4.2-14.4,7.6-13.5c2.8,0.8,0.5,12.9-8,19.8  C217.6,309.3,217.8,307.2,218.3,305.3z"></path>	<path class="st0" d="M307.1,293H307c-0.2,0.2-1.4,1.5-2.7,2.4c-7.3,4.8-17.4,7-24.2,4.7c0,0-1.1,2.3,1.5,3.9  c3.4,2,8.1,4.1,12.8,5.1c-0.7,9.1-4.8,17.3-14.2,17.3c-9.5,0-12.1-7.6-10.9-16.4c0.8-5.9,3.4-11.2,7.3-14.3c1.7,0.6,3.5,1,5.3,1.1  c6.8,0.3,9.1-4.8,4.6-6.2c-2.5-0.7-4.9-1.1-7.5-1c-1.6-2.8-1.2-7.5-0.2-12.7c1.6-7,6.5-15.1,14.5-11.9c5.8,2.3,0.2,15.1-8.5,17.7  c0,0,7.5,9.6,14.4,3.6c7.8-6.6,6.2-20.7-3.7-24.1c-11.3-3.9-27.7,4-30.1,15.6c-1.1,5.4,1,10.4,4.7,13.8c-7.6,3.2-14,10.1-15.2,18.4  c-1.9,11.8,6.7,21.1,20.1,21.1c13.6,0,23.4-10,25.5-21.3c1.1,0,2.3-0.1,3.3-0.3C310.1,308.3,314.5,297.7,307.1,293z"></path>	<path class="st0" d="M381.3,291.5c4.2-3.4,7.1-8.4,7.4-14.3c0.5-10.6-10.6-17.1-25.7-16.7c-16.3,0.5-32.5,7-39.1,20.2  c-5.9,11.7-0.2,21,10.2,20.7c12.4-0.2,8.4-13.2,8.4-13.2c-5.2,2.1-11.2,0.3-8.3-7.9c2-7.5,11.5-14,25.3-14c11,0,16.4,5.3,15.5,12.9  c-0.5,4-1.7,7.2-3.9,9.5c-1.6-0.1-3.2-0.2-4.6-0.2c-6.9,0.2-8.6,5.1-3.9,7c3.1,1.1,6.6,1.3,9.9,0.4c2.7,2.8,3.9,7.2,2.6,14  c-2.6,12.6-16.2,16.3-24.8,15.6c-7.1-0.6-16-4.4-14.9-11.5c0.7-4.7,4.4-5.5,8.3-3.5l-0.6,5.8c-0.2,2.8-0.9,4-0.9,4  c9.2,5.6,15.7,0.2,15.8-12.4c-0.3-29.3,5.6-33.5,5.6-33.5c0-3.2-9.2-7.8-14.4-1.3c-3.9,5.1-3.4,10.9-4.8,29.7  c-8.7-1.5-17.7,1.9-18.6,10.4c-0.9,8.8,10.4,14.7,22.8,15.9c15.4,1.5,40.2-3.7,42-21.1C391.6,299.4,387.1,294.3,381.3,291.5z"></path>	<path class="st0" d="M472.7,270.3c0,0-10.1-7.9-15.5-0.6c-3.4,4.9-6.2,18.4-7.6,30.4c-0.5,4.6-0.3,9.6,0.4,14  c-2.1,4.7-4.9,8.4-7.1,7.6c-2.3-0.8-0.2-15.1,1.2-22.9c3.8-21.5,10.1-28.5,10.1-28.5s-10.1-7.9-15.5-0.6  c-3.4,4.9-6.2,18.4-7.6,30.4c-0.5,4.6-0.3,9.5,0.4,13.9c-2.1,4.7-4.9,8.2-7.1,7.7c-2.5-0.5-1.2-7.3,0.1-14.6c1.8-9.5,5-15.9,5-15.9  c-3.2-3.2-8.7-3.6-12.6,0.1c-0.7-0.6-1.6-1.1-2.5-1.4c-9-2.7-19.7,4.7-21.9,16.5c-2.1,11.3,3.3,20,10.2,19.5  c6.2-0.4,8.3-6.2,9.8-11.2c0.7,6.2,2.8,10.5,6.9,11.6c5.3,1.3,10-2.2,13.3-7.8c1.2,3.9,2.9,6.8,5.1,7.8c4.5,1.9,9.8-2,13.3-7.8  c1.2,3.9,2.9,6.9,5.1,7.8c5.5,2.3,12.1-4,15.2-11.7c1-2.6-0.3-3.6-1.8-3.2h-0.1c-2.1,5.8-5.6,11.2-8.1,10.2  c-2.3-0.8-0.2-15.1,1.2-22.9C466.3,277.3,472.7,270.3,472.7,270.3z M413.3,299.4c-0.5,2.6-0.7,5.2-0.9,7.5  c-2.4,9.7-3.4,13.1-5.7,12.4c-2.6-0.6-2.2-7.9-0.8-14.1c1.5-6.4,3.9-11.6,7.9-11.3c0.4,0,0.8,0.2,1.1,0.2  C414.2,295.5,413.6,297.3,413.3,299.4z"></path>	<path class="st0" d="M517.6,313c-2.9,7.2-8.1,12.6-14.9,11.2c-8.1-1.6-8.3-14.7-4-30.9c5.6-20.9,14.8-31.7,22.2-29.5  c7.4,2.2,0.3,17.6-13.9,21.8c0,0,6.2,11.7,17.2,3.6c11.1-8,8.8-26.1-1.2-28.6c-11.2-2.8-32.8,7.7-38.5,33.9  c-4.7,21.4,3.2,32.2,13.1,34.4c7.6,1.5,13.6-1.4,17.8-6.4c-2.8,13.5-7.1,15.5-7.1,15.5s5.7,7,13.9,2.5c5.3-2.8,5.7-14.6,6.9-33.1  c0.2-2.8,0-3.9,0-3.9C525,301.6,520.9,301.9,517.6,313z"></path>	<path class="st0" d="M699.3,303.2c-0.2,0-0.2,0-0.2,0c-1.1,3.2-3.4,4.8-6.2,5.9c-1.2-7.5-8-12.3-14.9-16l-1.1-0.5  c0,0,0.1,0,0.1-0.1c0.5-3.2,0.2-7.8-1.1-9.1c-1.7-1.8-9.4,3.6-10.1,6.9c-0.7,3,1.2,5.9,3.6,8.1c-0.8,4.4-2.5,10.1-4.3,14.5  c-2.7,5.7-9.5,10.8-16.6,9.4c-2.8-0.5-4.6-3.6-5.5-7.2c0.2-0.1,0.4-0.1,0.7-0.2c21.8-10.5,25-23,9.3-25.9  c-10.5-1.9-21.2,5.9-23.5,17.4c-0.5,2.8-0.3,5.3,0.3,7.7c-2.3,4.6-5.8,8.1-8.1,7.6c-2.5-0.6-0.7-7.1,1.1-14.6  c2.7-11.3,0.2-17.6-3.2-18.5c-3.9-1-10,1.8-14.7,10.7c0-6.5-2.1-9.7-4.7-10.7c-3.9-1.3-10.1,2.3-15.2,12c1.6-8.8,3.1-10.3,3.2-10.4  c-0.1-0.2-7.9-5.5-13.2-1.9c-4.4,2.9-4.8,11.8-4.7,26c-2.1,4.5-4.8,7.9-7,7.5c-2.5-0.5-1.2-7.3,0.1-14.6c1.8-9.5,5-15.9,5-15.9  c-3.2-3.2-8.7-3.6-12.6,0.1c-0.7-0.6-1.6-1.1-2.5-1.4c-9-2.7-19.7,4.7-21.9,16.5c-2.1,11.3,3.3,20,10.2,19.5  c6.2-0.4,8.3-6.2,9.8-11.2c0.7,6.2,2.8,10.5,6.9,11.6c4.7,1.2,9-1.5,12.1-6c0,0.5,0,1,0,1.5c0,2.8,0.2,3.9,0.2,3.9  c5.9,2.3,10.8,0,13.1-15.1c5-12,6.9-15.1,8.5-14.7c1.6,0.3,0.2,4.5-1.7,14.3c-2.1,9.6-3.4,15.6-3.4,15.6c4,1.5,11.6,1,13.3-4.4  c1.7-5,2.8-9.4,3.5-13.1c4.3-10,6-12.7,7.5-12.4c1.6,0.3,0.9,3.2-1.7,12.9c-2.9,10.9,1.9,17.9,7.6,18.6c4.7,0.6,10.5-3.4,14-9.5  c2.9,5.2,8.2,8.6,12.1,9.3c10.4,1.8,19.1-4.1,22.9-10c0.2-0.2,0.3-0.5,0.5-0.8c0-0.1,0.1-0.2,0.1-0.3c0.1-0.1,0.1-0.2,0.2-0.3  c2.4-4.6,4.9-9,7-13.8c3.3,2.2,5.1,5.5,4.5,10.4c-1.3,0.4-2.6,0.9-4,1.4c-6.3,2.8-8.7,8.7-4.4,11.6c5.9,3.8,20.4,2,22.7-11  c0-0.2,0.1-0.5,0.1-0.6c3.5-1.4,6.4-3.6,8-7.4C702.1,303.8,700.8,302.7,699.3,303.2z M552.3,299.4c-0.5,2.6-0.7,5.2-0.9,7.5  c-2.4,9.7-3.4,13.1-5.7,12.4c-2.6-0.6-2.2-7.9-0.8-14.1c1.5-6.4,3.9-11.6,7.9-11.3c0.4,0,0.8,0.2,1.1,0.2  C553.2,295.5,552.6,297.3,552.3,299.4z M643.1,305.3c1.5-5.6,4.2-14.4,7.6-13.5c2.8,0.8,0.5,12.9-8,19.8  C642.5,309.3,642.6,307.2,643.1,305.3z M672.7,322.5c-1.8-0.9-1.3-4.1,1.6-5.1c1.1-0.4,2.3-0.6,3.7-0.9  C676.4,322.1,674.6,323.5,672.7,322.5z"></path></g></svg>